<?xml version="1.0" standalone="no"?>
<!DOCTYPE svg PUBLIC "-//W3C//DTD SVG 20010904//EN"
 "http://www.w3.org/TR/2001/REC-SVG-20010904/DTD/svg10.dtd">
<svg version="1.0" xmlns="http://www.w3.org/2000/svg"
 width="700.000000pt" height="700.000000pt" viewBox="0 0 700.000000 700.000000"
 preserveAspectRatio="xMidYMid meet">
<metadata>
Created by potrace 1.14, written by Peter Selinger 2001-2017
</metadata>
<g transform="translate(0.000000,700.000000) scale(0.100000,-0.100000)"
fill="#000000" stroke="none">
<path d="M4640 6595 c-8 -3 -746 -133 -1640 -290 -894 -158 -1652 -293 -1684
-301 -357 -91 -618 -450 -593 -817 6 -90 718 -4139 743 -4226 36 -126 136
-282 235 -370 105 -92 256 -167 383 -190 153 -28 146 -29 1870 275 892 157
1657 294 1702 304 360 84 614 402 616 770 0 95 -34 299 -361 2155 -199 1128
-367 2068 -372 2090 -47 178 -163 350 -304 450 -149 106 -270 146 -450 151
-71 1 -137 1 -145 -1z m23 -1259 c50 -20 87 -70 87 -116 0 -25 -137 -427 -390
-1143 -214 -608 -390 -1118 -390 -1132 0 -15 41 -257 91 -538 49 -282 90 -532
90 -556 1 -49 -21 -86 -67 -113 -38 -22 -496 -102 -542 -94 -44 7 -89 49 -102
96 -6 19 -51 265 -100 546 -49 280 -93 521 -99 535 -5 13 -341 427 -746 919
-406 492 -744 905 -753 918 -20 31 -20 104 2 137 32 48 66 59 353 109 l280 49
39 -19 c31 -15 135 -143 536 -659 378 -485 503 -640 519 -640 19 0 45 73 269
768 137 422 255 779 264 792 9 14 27 32 40 40 14 9 143 38 293 65 316 57 286
53 326 36z"/>
</g>
</svg>
